<mxfile host="app.diagrams.net" agent="Mozilla/5.0 (Windows NT 10.0; Win64; x64) AppleWebKit/537.36 (KHTML, like Gecko) Chrome/126.0.0.0 Safari/537.36 Edg/126.0.0.0" version="24.7.5">
  <diagram id="R2lEEEUBdFMjLlhIrx00" name="Page-1">
    <mxGraphModel dx="2702" dy="1669" grid="1" gridSize="10" guides="1" tooltips="1" connect="1" arrows="1" fold="1" page="1" pageScale="1" pageWidth="850" pageHeight="1100" math="0" shadow="0" extFonts="Permanent Marker^https://fonts.googleapis.com/css?family=Permanent+Marker">
      <root>
        <mxCell id="0" />
        <mxCell id="1" parent="0" />
        <mxCell id="pdpvf5aHKB5Wgdi-WaZ--1" value="employee" style="rounded=1;whiteSpace=wrap;html=1;" parent="1" vertex="1">
          <mxGeometry x="-710" y="190" width="120" height="110" as="geometry" />
        </mxCell>
        <mxCell id="pdpvf5aHKB5Wgdi-WaZ--2" value="gender" style="ellipse;whiteSpace=wrap;html=1;" parent="1" vertex="1">
          <mxGeometry x="-670" y="120" width="100" height="50" as="geometry" />
        </mxCell>
        <mxCell id="pdpvf5aHKB5Wgdi-WaZ--3" value="name" style="ellipse;whiteSpace=wrap;html=1;" parent="1" vertex="1">
          <mxGeometry x="-780" y="150" width="110" height="40" as="geometry" />
        </mxCell>
        <mxCell id="pdpvf5aHKB5Wgdi-WaZ--4" value="birthdate" style="ellipse;whiteSpace=wrap;html=1;" parent="1" vertex="1">
          <mxGeometry x="-840" y="200" width="90" height="50" as="geometry" />
        </mxCell>
        <mxCell id="pdpvf5aHKB5Wgdi-WaZ--5" value="ssn" style="ellipse;whiteSpace=wrap;html=1;" parent="1" vertex="1">
          <mxGeometry x="-560" y="140" width="120" height="40" as="geometry" />
        </mxCell>
        <mxCell id="pdpvf5aHKB5Wgdi-WaZ--6" value="lname" style="ellipse;whiteSpace=wrap;html=1;" parent="1" vertex="1">
          <mxGeometry x="-810" y="60" width="120" height="50" as="geometry" />
        </mxCell>
        <mxCell id="pdpvf5aHKB5Wgdi-WaZ--7" value="fname" style="ellipse;whiteSpace=wrap;html=1;" parent="1" vertex="1">
          <mxGeometry x="-910" y="110" width="100" height="40" as="geometry" />
        </mxCell>
        <mxCell id="pdpvf5aHKB5Wgdi-WaZ--8" style="edgeStyle=orthogonalEdgeStyle;rounded=0;orthogonalLoop=1;jettySize=auto;html=1;exitX=0.5;exitY=1;exitDx=0;exitDy=0;" parent="1" source="pdpvf5aHKB5Wgdi-WaZ--6" target="pdpvf5aHKB5Wgdi-WaZ--6" edge="1">
          <mxGeometry relative="1" as="geometry" />
        </mxCell>
        <mxCell id="pdpvf5aHKB5Wgdi-WaZ--9" style="edgeStyle=orthogonalEdgeStyle;rounded=0;orthogonalLoop=1;jettySize=auto;html=1;exitX=0.5;exitY=1;exitDx=0;exitDy=0;" parent="1" source="pdpvf5aHKB5Wgdi-WaZ--6" target="pdpvf5aHKB5Wgdi-WaZ--6" edge="1">
          <mxGeometry relative="1" as="geometry" />
        </mxCell>
        <mxCell id="pdpvf5aHKB5Wgdi-WaZ--11" value="" style="endArrow=none;html=1;rounded=0;" parent="1" edge="1">
          <mxGeometry width="50" height="50" relative="1" as="geometry">
            <mxPoint x="-530" y="170" as="sourcePoint" />
            <mxPoint x="-460" y="170" as="targetPoint" />
            <Array as="points" />
          </mxGeometry>
        </mxCell>
        <mxCell id="pdpvf5aHKB5Wgdi-WaZ--12" value="" style="endArrow=none;html=1;rounded=0;entryX=0.5;entryY=1;entryDx=0;entryDy=0;exitX=1;exitY=0;exitDx=0;exitDy=0;" parent="1" source="pdpvf5aHKB5Wgdi-WaZ--1" target="pdpvf5aHKB5Wgdi-WaZ--5" edge="1">
          <mxGeometry width="50" height="50" relative="1" as="geometry">
            <mxPoint x="-490" y="300" as="sourcePoint" />
            <mxPoint x="-440" y="250" as="targetPoint" />
          </mxGeometry>
        </mxCell>
        <mxCell id="pdpvf5aHKB5Wgdi-WaZ--13" value="" style="endArrow=none;html=1;rounded=0;entryX=0.5;entryY=1;entryDx=0;entryDy=0;exitX=0.75;exitY=0;exitDx=0;exitDy=0;" parent="1" source="pdpvf5aHKB5Wgdi-WaZ--1" target="pdpvf5aHKB5Wgdi-WaZ--2" edge="1">
          <mxGeometry width="50" height="50" relative="1" as="geometry">
            <mxPoint x="-490" y="300" as="sourcePoint" />
            <mxPoint x="-440" y="250" as="targetPoint" />
          </mxGeometry>
        </mxCell>
        <mxCell id="pdpvf5aHKB5Wgdi-WaZ--14" value="" style="endArrow=none;html=1;rounded=0;entryX=1;entryY=1;entryDx=0;entryDy=0;exitX=0.5;exitY=0;exitDx=0;exitDy=0;" parent="1" source="pdpvf5aHKB5Wgdi-WaZ--1" target="pdpvf5aHKB5Wgdi-WaZ--3" edge="1">
          <mxGeometry width="50" height="50" relative="1" as="geometry">
            <mxPoint x="-490" y="300" as="sourcePoint" />
            <mxPoint x="-440" y="250" as="targetPoint" />
          </mxGeometry>
        </mxCell>
        <mxCell id="pdpvf5aHKB5Wgdi-WaZ--15" value="" style="endArrow=none;html=1;rounded=0;entryX=1;entryY=1;entryDx=0;entryDy=0;exitX=0;exitY=0.25;exitDx=0;exitDy=0;" parent="1" source="pdpvf5aHKB5Wgdi-WaZ--1" target="pdpvf5aHKB5Wgdi-WaZ--4" edge="1">
          <mxGeometry width="50" height="50" relative="1" as="geometry">
            <mxPoint x="-490" y="300" as="sourcePoint" />
            <mxPoint x="-440" y="250" as="targetPoint" />
          </mxGeometry>
        </mxCell>
        <mxCell id="pdpvf5aHKB5Wgdi-WaZ--16" value="" style="endArrow=none;html=1;rounded=0;entryX=0.593;entryY=0.984;entryDx=0;entryDy=0;entryPerimeter=0;exitX=0.5;exitY=0;exitDx=0;exitDy=0;" parent="1" source="pdpvf5aHKB5Wgdi-WaZ--3" target="pdpvf5aHKB5Wgdi-WaZ--6" edge="1">
          <mxGeometry width="50" height="50" relative="1" as="geometry">
            <mxPoint x="-490" y="300" as="sourcePoint" />
            <mxPoint x="-440" y="250" as="targetPoint" />
          </mxGeometry>
        </mxCell>
        <mxCell id="pdpvf5aHKB5Wgdi-WaZ--17" value="" style="endArrow=none;html=1;rounded=0;entryX=1;entryY=1;entryDx=0;entryDy=0;exitX=0.047;exitY=0.3;exitDx=0;exitDy=0;exitPerimeter=0;" parent="1" source="pdpvf5aHKB5Wgdi-WaZ--3" target="pdpvf5aHKB5Wgdi-WaZ--7" edge="1">
          <mxGeometry width="50" height="50" relative="1" as="geometry">
            <mxPoint x="-490" y="300" as="sourcePoint" />
            <mxPoint x="-440" y="250" as="targetPoint" />
          </mxGeometry>
        </mxCell>
        <mxCell id="pdpvf5aHKB5Wgdi-WaZ--18" value="department" style="rounded=1;whiteSpace=wrap;html=1;" parent="1" vertex="1">
          <mxGeometry x="-180" y="240" width="120" height="60" as="geometry" />
        </mxCell>
        <mxCell id="pdpvf5aHKB5Wgdi-WaZ--19" value="" style="ellipse;whiteSpace=wrap;html=1;" parent="1" vertex="1">
          <mxGeometry x="-20" y="200" width="100" height="50" as="geometry" />
        </mxCell>
        <mxCell id="pdpvf5aHKB5Wgdi-WaZ--20" value="Dnum" style="ellipse;whiteSpace=wrap;html=1;" parent="1" vertex="1">
          <mxGeometry x="-100" y="150" width="100" height="40" as="geometry" />
        </mxCell>
        <mxCell id="pdpvf5aHKB5Wgdi-WaZ--21" value="Dname" style="ellipse;whiteSpace=wrap;html=1;" parent="1" vertex="1">
          <mxGeometry x="-200" y="145" width="90" height="50" as="geometry" />
        </mxCell>
        <mxCell id="pdpvf5aHKB5Wgdi-WaZ--22" value="locations" style="ellipse;whiteSpace=wrap;html=1;" parent="1" vertex="1">
          <mxGeometry x="-15" y="205" width="90" height="40" as="geometry" />
        </mxCell>
        <mxCell id="pdpvf5aHKB5Wgdi-WaZ--23" value="" style="endArrow=none;html=1;rounded=0;" parent="1" edge="1">
          <mxGeometry width="50" height="50" relative="1" as="geometry">
            <mxPoint x="-75" y="180" as="sourcePoint" />
            <mxPoint x="-15" y="180" as="targetPoint" />
          </mxGeometry>
        </mxCell>
        <mxCell id="pdpvf5aHKB5Wgdi-WaZ--24" value="project" style="rounded=1;whiteSpace=wrap;html=1;" parent="1" vertex="1">
          <mxGeometry x="-390" y="550" width="120" height="60" as="geometry" />
        </mxCell>
        <mxCell id="pdpvf5aHKB5Wgdi-WaZ--26" value="pname" style="ellipse;whiteSpace=wrap;html=1;" parent="1" vertex="1">
          <mxGeometry x="-530" y="580" width="100" height="50" as="geometry" />
        </mxCell>
        <mxCell id="pdpvf5aHKB5Wgdi-WaZ--27" value="pnumber" style="ellipse;whiteSpace=wrap;html=1;" parent="1" vertex="1">
          <mxGeometry x="-520" y="520" width="100" height="50" as="geometry" />
        </mxCell>
        <mxCell id="pdpvf5aHKB5Wgdi-WaZ--28" value="location" style="ellipse;whiteSpace=wrap;html=1;" parent="1" vertex="1">
          <mxGeometry x="-410" y="630" width="100" height="40" as="geometry" />
        </mxCell>
        <mxCell id="pdpvf5aHKB5Wgdi-WaZ--29" value="" style="endArrow=none;html=1;rounded=0;entryX=0.044;entryY=0.648;entryDx=0;entryDy=0;entryPerimeter=0;" parent="1" target="pdpvf5aHKB5Wgdi-WaZ--19" edge="1">
          <mxGeometry width="50" height="50" relative="1" as="geometry">
            <mxPoint x="-60" y="250" as="sourcePoint" />
            <mxPoint x="-380" y="310" as="targetPoint" />
          </mxGeometry>
        </mxCell>
        <mxCell id="pdpvf5aHKB5Wgdi-WaZ--30" value="" style="endArrow=none;html=1;rounded=0;entryX=0.396;entryY=1.06;entryDx=0;entryDy=0;entryPerimeter=0;exitX=0.837;exitY=-0.033;exitDx=0;exitDy=0;exitPerimeter=0;" parent="1" source="pdpvf5aHKB5Wgdi-WaZ--18" target="pdpvf5aHKB5Wgdi-WaZ--20" edge="1">
          <mxGeometry width="50" height="50" relative="1" as="geometry">
            <mxPoint x="-430" y="360" as="sourcePoint" />
            <mxPoint x="-380" y="310" as="targetPoint" />
          </mxGeometry>
        </mxCell>
        <mxCell id="pdpvf5aHKB5Wgdi-WaZ--31" value="" style="endArrow=none;html=1;rounded=0;entryX=0.609;entryY=1.076;entryDx=0;entryDy=0;entryPerimeter=0;exitX=0.363;exitY=0.007;exitDx=0;exitDy=0;exitPerimeter=0;" parent="1" source="pdpvf5aHKB5Wgdi-WaZ--18" target="pdpvf5aHKB5Wgdi-WaZ--21" edge="1">
          <mxGeometry width="50" height="50" relative="1" as="geometry">
            <mxPoint x="-430" y="360" as="sourcePoint" />
            <mxPoint x="-380" y="310" as="targetPoint" />
          </mxGeometry>
        </mxCell>
        <mxCell id="pdpvf5aHKB5Wgdi-WaZ--32" value="city" style="ellipse;whiteSpace=wrap;html=1;" parent="1" vertex="1">
          <mxGeometry x="-300" y="650" width="90" height="50" as="geometry" />
        </mxCell>
        <mxCell id="pdpvf5aHKB5Wgdi-WaZ--33" value="" style="endArrow=none;html=1;rounded=0;" parent="1" edge="1">
          <mxGeometry width="50" height="50" relative="1" as="geometry">
            <mxPoint x="-505" y="559" as="sourcePoint" />
            <mxPoint x="-425" y="559" as="targetPoint" />
          </mxGeometry>
        </mxCell>
        <mxCell id="pdpvf5aHKB5Wgdi-WaZ--34" value="" style="endArrow=none;html=1;rounded=0;exitX=0.75;exitY=1;exitDx=0;exitDy=0;" parent="1" source="pdpvf5aHKB5Wgdi-WaZ--24" edge="1">
          <mxGeometry width="50" height="50" relative="1" as="geometry">
            <mxPoint x="-430" y="360" as="sourcePoint" />
            <mxPoint x="-270" y="650" as="targetPoint" />
          </mxGeometry>
        </mxCell>
        <mxCell id="pdpvf5aHKB5Wgdi-WaZ--35" value="" style="endArrow=none;html=1;rounded=0;entryX=1;entryY=1;entryDx=0;entryDy=0;exitX=0;exitY=1;exitDx=0;exitDy=0;" parent="1" source="pdpvf5aHKB5Wgdi-WaZ--24" target="pdpvf5aHKB5Wgdi-WaZ--26" edge="1">
          <mxGeometry width="50" height="50" relative="1" as="geometry">
            <mxPoint x="-430" y="360" as="sourcePoint" />
            <mxPoint x="-380" y="310" as="targetPoint" />
          </mxGeometry>
        </mxCell>
        <mxCell id="pdpvf5aHKB5Wgdi-WaZ--36" value="" style="endArrow=none;html=1;rounded=0;entryX=0.988;entryY=0.344;entryDx=0;entryDy=0;entryPerimeter=0;exitX=0;exitY=0.5;exitDx=0;exitDy=0;" parent="1" source="pdpvf5aHKB5Wgdi-WaZ--24" target="pdpvf5aHKB5Wgdi-WaZ--27" edge="1">
          <mxGeometry width="50" height="50" relative="1" as="geometry">
            <mxPoint x="-430" y="360" as="sourcePoint" />
            <mxPoint x="-380" y="310" as="targetPoint" />
          </mxGeometry>
        </mxCell>
        <mxCell id="pdpvf5aHKB5Wgdi-WaZ--37" value="" style="endArrow=none;html=1;rounded=0;entryX=0.624;entryY=0.05;entryDx=0;entryDy=0;entryPerimeter=0;exitX=0.5;exitY=1;exitDx=0;exitDy=0;" parent="1" source="pdpvf5aHKB5Wgdi-WaZ--24" target="pdpvf5aHKB5Wgdi-WaZ--28" edge="1">
          <mxGeometry width="50" height="50" relative="1" as="geometry">
            <mxPoint x="-430" y="360" as="sourcePoint" />
            <mxPoint x="-380" y="310" as="targetPoint" />
          </mxGeometry>
        </mxCell>
        <mxCell id="pdpvf5aHKB5Wgdi-WaZ--38" value="" style="rounded=1;whiteSpace=wrap;html=1;" parent="1" vertex="1">
          <mxGeometry x="-790" y="570" width="120" height="60" as="geometry" />
        </mxCell>
        <mxCell id="pdpvf5aHKB5Wgdi-WaZ--39" value="dependent" style="rounded=1;whiteSpace=wrap;html=1;" parent="1" vertex="1">
          <mxGeometry x="-785" y="575" width="110" height="50" as="geometry" />
        </mxCell>
        <mxCell id="pdpvf5aHKB5Wgdi-WaZ--40" value="name" style="ellipse;whiteSpace=wrap;html=1;" parent="1" vertex="1">
          <mxGeometry x="-665" y="670" width="90" height="45" as="geometry" />
        </mxCell>
        <mxCell id="pdpvf5aHKB5Wgdi-WaZ--41" value="gender" style="ellipse;whiteSpace=wrap;html=1;" parent="1" vertex="1">
          <mxGeometry x="-755" y="675" width="90" height="40" as="geometry" />
        </mxCell>
        <mxCell id="pdpvf5aHKB5Wgdi-WaZ--42" value="birth date" style="ellipse;whiteSpace=wrap;html=1;" parent="1" vertex="1">
          <mxGeometry x="-840" y="670" width="80" height="40" as="geometry" />
        </mxCell>
        <mxCell id="pdpvf5aHKB5Wgdi-WaZ--43" value="" style="endArrow=none;html=1;rounded=0;" parent="1" edge="1">
          <mxGeometry width="50" height="50" relative="1" as="geometry">
            <mxPoint x="-652" y="700" as="sourcePoint" />
            <mxPoint x="-588" y="700" as="targetPoint" />
            <Array as="points">
              <mxPoint x="-620" y="700" />
            </Array>
          </mxGeometry>
        </mxCell>
        <mxCell id="pdpvf5aHKB5Wgdi-WaZ--44" value="" style="endArrow=none;html=1;rounded=0;exitX=1;exitY=1;exitDx=0;exitDy=0;" parent="1" source="pdpvf5aHKB5Wgdi-WaZ--38" target="pdpvf5aHKB5Wgdi-WaZ--40" edge="1">
          <mxGeometry width="50" height="50" relative="1" as="geometry">
            <mxPoint x="-420" y="360" as="sourcePoint" />
            <mxPoint x="-370" y="310" as="targetPoint" />
          </mxGeometry>
        </mxCell>
        <mxCell id="pdpvf5aHKB5Wgdi-WaZ--45" value="" style="endArrow=none;html=1;rounded=0;entryX=0;entryY=0;entryDx=0;entryDy=0;" parent="1" target="pdpvf5aHKB5Wgdi-WaZ--41" edge="1">
          <mxGeometry width="50" height="50" relative="1" as="geometry">
            <mxPoint x="-730" y="632" as="sourcePoint" />
            <mxPoint x="-370" y="310" as="targetPoint" />
          </mxGeometry>
        </mxCell>
        <mxCell id="pdpvf5aHKB5Wgdi-WaZ--46" value="" style="endArrow=none;html=1;rounded=0;entryX=0.5;entryY=0;entryDx=0;entryDy=0;exitX=0.08;exitY=1.027;exitDx=0;exitDy=0;exitPerimeter=0;" parent="1" source="pdpvf5aHKB5Wgdi-WaZ--38" target="pdpvf5aHKB5Wgdi-WaZ--42" edge="1">
          <mxGeometry width="50" height="50" relative="1" as="geometry">
            <mxPoint x="-420" y="360" as="sourcePoint" />
            <mxPoint x="-370" y="310" as="targetPoint" />
          </mxGeometry>
        </mxCell>
        <mxCell id="pdpvf5aHKB5Wgdi-WaZ--47" value="work" style="rhombus;whiteSpace=wrap;html=1;" parent="1" vertex="1">
          <mxGeometry x="-530" y="360" width="60" height="70" as="geometry" />
        </mxCell>
        <mxCell id="pdpvf5aHKB5Wgdi-WaZ--49" value="" style="endArrow=none;html=1;rounded=0;entryX=0.5;entryY=1;entryDx=0;entryDy=0;exitX=0.187;exitY=-0.027;exitDx=0;exitDy=0;exitPerimeter=0;" parent="1" source="pdpvf5aHKB5Wgdi-WaZ--24" target="pdpvf5aHKB5Wgdi-WaZ--47" edge="1">
          <mxGeometry width="50" height="50" relative="1" as="geometry">
            <mxPoint x="-590" y="500" as="sourcePoint" />
            <mxPoint x="-440" y="310" as="targetPoint" />
          </mxGeometry>
        </mxCell>
        <mxCell id="pdpvf5aHKB5Wgdi-WaZ--55" value="m" style="text;html=1;align=center;verticalAlign=middle;whiteSpace=wrap;rounded=0;" parent="1" vertex="1">
          <mxGeometry x="-765" y="560" width="30" height="10" as="geometry" />
        </mxCell>
        <mxCell id="pdpvf5aHKB5Wgdi-WaZ--56" value="have" style="rhombus;whiteSpace=wrap;html=1;direction=east;rotation=0;" parent="1" vertex="1">
          <mxGeometry x="-745" y="395" width="80" height="80" as="geometry" />
        </mxCell>
        <mxCell id="pdpvf5aHKB5Wgdi-WaZ--58" value="" style="endArrow=none;html=1;rounded=0;entryX=0.5;entryY=0;entryDx=0;entryDy=0;exitX=0.5;exitY=1;exitDx=0;exitDy=0;" parent="1" target="pdpvf5aHKB5Wgdi-WaZ--38" edge="1" source="pdpvf5aHKB5Wgdi-WaZ--56">
          <mxGeometry width="50" height="50" relative="1" as="geometry">
            <mxPoint x="-381" y="340" as="sourcePoint" />
            <mxPoint x="-710" y="475" as="targetPoint" />
            <Array as="points" />
          </mxGeometry>
        </mxCell>
        <mxCell id="pdpvf5aHKB5Wgdi-WaZ--60" value="m" style="text;html=1;align=center;verticalAlign=middle;whiteSpace=wrap;rounded=0;" parent="1" vertex="1">
          <mxGeometry x="-410" y="530" width="40" height="20" as="geometry" />
        </mxCell>
        <mxCell id="pdpvf5aHKB5Wgdi-WaZ--61" value="" style="endArrow=none;html=1;rounded=0;exitX=0.44;exitY=-0.013;exitDx=0;exitDy=0;exitPerimeter=0;" parent="1" target="pdpvf5aHKB5Wgdi-WaZ--56" edge="1" source="pdpvf5aHKB5Wgdi-WaZ--38">
          <mxGeometry width="50" height="50" relative="1" as="geometry">
            <mxPoint x="-375" y="410" as="sourcePoint" />
            <mxPoint x="-435" y="364.6410161513776" as="targetPoint" />
          </mxGeometry>
        </mxCell>
        <mxCell id="pqi50a7H88OGTmo-xfOe-1" value="" style="rhombus;whiteSpace=wrap;html=1;" vertex="1" parent="1">
          <mxGeometry x="-345" y="-970" width="80" height="80" as="geometry" />
        </mxCell>
        <mxCell id="pqi50a7H88OGTmo-xfOe-2" value="manage" style="rhombus;whiteSpace=wrap;html=1;direction=south;rotation=-45;" vertex="1" parent="1">
          <mxGeometry x="-390" y="170" width="80" height="80" as="geometry" />
        </mxCell>
        <mxCell id="pqi50a7H88OGTmo-xfOe-7" value="" style="endArrow=none;html=1;rounded=0;entryX=1;entryY=0.5;entryDx=0;entryDy=0;exitX=0;exitY=0.5;exitDx=0;exitDy=0;" edge="1" parent="1" source="pdpvf5aHKB5Wgdi-WaZ--18" target="pqi50a7H88OGTmo-xfOe-2">
          <mxGeometry width="50" height="50" relative="1" as="geometry">
            <mxPoint x="-440" y="370" as="sourcePoint" />
            <mxPoint x="-390" y="320" as="targetPoint" />
          </mxGeometry>
        </mxCell>
        <mxCell id="pqi50a7H88OGTmo-xfOe-11" value="hiring date" style="ellipse;whiteSpace=wrap;html=1;" vertex="1" parent="1">
          <mxGeometry x="-365" y="90" width="90" height="50" as="geometry" />
        </mxCell>
        <mxCell id="pqi50a7H88OGTmo-xfOe-12" value="" style="endArrow=none;html=1;rounded=0;entryX=0.264;entryY=0.976;entryDx=0;entryDy=0;entryPerimeter=0;exitX=0;exitY=0;exitDx=0;exitDy=0;" edge="1" parent="1" source="pqi50a7H88OGTmo-xfOe-2" target="pqi50a7H88OGTmo-xfOe-11">
          <mxGeometry width="50" height="50" relative="1" as="geometry">
            <mxPoint x="-440" y="370" as="sourcePoint" />
            <mxPoint x="-390" y="320" as="targetPoint" />
          </mxGeometry>
        </mxCell>
        <mxCell id="pqi50a7H88OGTmo-xfOe-16" value="" style="endArrow=none;html=1;rounded=0;entryX=0.75;entryY=1;entryDx=0;entryDy=0;exitX=0.5;exitY=0;exitDx=0;exitDy=0;" edge="1" parent="1" source="pdpvf5aHKB5Wgdi-WaZ--47">
          <mxGeometry width="50" height="50" relative="1" as="geometry">
            <mxPoint x="-580" y="395" as="sourcePoint" />
            <mxPoint x="-600" y="300" as="targetPoint" />
          </mxGeometry>
        </mxCell>
        <mxCell id="pqi50a7H88OGTmo-xfOe-17" value="m" style="text;html=1;align=center;verticalAlign=middle;whiteSpace=wrap;rounded=0;" vertex="1" parent="1">
          <mxGeometry x="-620" y="300" width="20" height="20" as="geometry" />
        </mxCell>
        <mxCell id="pqi50a7H88OGTmo-xfOe-18" value="" style="endArrow=none;html=1;rounded=0;exitX=0.5;exitY=0;exitDx=0;exitDy=0;entryX=0.5;entryY=1;entryDx=0;entryDy=0;" edge="1" parent="1" source="pdpvf5aHKB5Wgdi-WaZ--56" target="pdpvf5aHKB5Wgdi-WaZ--1">
          <mxGeometry width="50" height="50" relative="1" as="geometry">
            <mxPoint x="-440" y="370" as="sourcePoint" />
            <mxPoint x="-390" y="320" as="targetPoint" />
            <Array as="points" />
          </mxGeometry>
        </mxCell>
        <mxCell id="pqi50a7H88OGTmo-xfOe-19" value="1" style="text;html=1;align=center;verticalAlign=middle;whiteSpace=wrap;rounded=0;" vertex="1" parent="1">
          <mxGeometry x="-690" y="300" width="30" height="25" as="geometry" />
        </mxCell>
        <mxCell id="pqi50a7H88OGTmo-xfOe-20" value="" style="endArrow=none;html=1;rounded=0;entryX=0;entryY=0.5;entryDx=0;entryDy=0;exitX=1;exitY=0.25;exitDx=0;exitDy=0;" edge="1" parent="1">
          <mxGeometry width="50" height="50" relative="1" as="geometry">
            <mxPoint x="-586.72" y="235.78" as="sourcePoint" />
            <mxPoint x="-375.0042712474617" y="199.9957287525381" as="targetPoint" />
          </mxGeometry>
        </mxCell>
        <mxCell id="pqi50a7H88OGTmo-xfOe-21" value="1" style="text;html=1;align=center;verticalAlign=middle;whiteSpace=wrap;rounded=0;" vertex="1" parent="1">
          <mxGeometry x="-580" y="220" width="30" height="10" as="geometry" />
        </mxCell>
        <mxCell id="pqi50a7H88OGTmo-xfOe-23" value="1" style="text;html=1;align=center;verticalAlign=middle;whiteSpace=wrap;rounded=0;" vertex="1" parent="1">
          <mxGeometry x="-220" y="245" width="40" height="20" as="geometry" />
        </mxCell>
        <mxCell id="pqi50a7H88OGTmo-xfOe-24" value="work on" style="rhombus;whiteSpace=wrap;html=1;" vertex="1" parent="1">
          <mxGeometry x="-410" y="250" width="60" height="60" as="geometry" />
        </mxCell>
        <mxCell id="pqi50a7H88OGTmo-xfOe-25" value="" style="endArrow=none;html=1;rounded=0;entryX=0;entryY=0.5;entryDx=0;entryDy=0;exitX=1;exitY=0.5;exitDx=0;exitDy=0;" edge="1" parent="1" source="pdpvf5aHKB5Wgdi-WaZ--1" target="pqi50a7H88OGTmo-xfOe-24">
          <mxGeometry width="50" height="50" relative="1" as="geometry">
            <mxPoint x="-440" y="370" as="sourcePoint" />
            <mxPoint x="-390" y="320" as="targetPoint" />
            <Array as="points" />
          </mxGeometry>
        </mxCell>
        <mxCell id="pqi50a7H88OGTmo-xfOe-26" value="" style="endArrow=none;html=1;rounded=0;entryX=0;entryY=0.75;entryDx=0;entryDy=0;exitX=1;exitY=0.5;exitDx=0;exitDy=0;" edge="1" parent="1" source="pqi50a7H88OGTmo-xfOe-24" target="pdpvf5aHKB5Wgdi-WaZ--18">
          <mxGeometry width="50" height="50" relative="1" as="geometry">
            <mxPoint x="-440" y="370" as="sourcePoint" />
            <mxPoint x="-390" y="320" as="targetPoint" />
          </mxGeometry>
        </mxCell>
        <mxCell id="pqi50a7H88OGTmo-xfOe-27" value="m" style="text;html=1;align=center;verticalAlign=middle;whiteSpace=wrap;rounded=0;" vertex="1" parent="1">
          <mxGeometry x="-590" y="235" width="30" height="10" as="geometry" />
        </mxCell>
        <mxCell id="pqi50a7H88OGTmo-xfOe-28" value="1" style="text;html=1;align=center;verticalAlign=middle;whiteSpace=wrap;rounded=0;" vertex="1" parent="1">
          <mxGeometry x="-210" y="267.5" width="20" height="20" as="geometry" />
        </mxCell>
        <mxCell id="pqi50a7H88OGTmo-xfOe-29" value="" style="endArrow=none;html=1;rounded=0;entryX=0;entryY=0.5;entryDx=0;entryDy=0;exitX=1.007;exitY=0.589;exitDx=0;exitDy=0;exitPerimeter=0;" edge="1" parent="1" source="pdpvf5aHKB5Wgdi-WaZ--1" target="pqi50a7H88OGTmo-xfOe-24">
          <mxGeometry width="50" height="50" relative="1" as="geometry">
            <mxPoint x="-440" y="370" as="sourcePoint" />
            <mxPoint x="-390" y="320" as="targetPoint" />
            <Array as="points">
              <mxPoint x="-460" y="280" />
            </Array>
          </mxGeometry>
        </mxCell>
        <mxCell id="pqi50a7H88OGTmo-xfOe-33" value="" style="endArrow=none;html=1;rounded=0;entryX=0.443;entryY=1.073;entryDx=0;entryDy=0;entryPerimeter=0;exitX=0.5;exitY=0;exitDx=0;exitDy=0;" edge="1" parent="1" source="pqi50a7H88OGTmo-xfOe-34" target="pdpvf5aHKB5Wgdi-WaZ--18">
          <mxGeometry width="50" height="50" relative="1" as="geometry">
            <mxPoint x="-140" y="370" as="sourcePoint" />
            <mxPoint x="-380" y="400" as="targetPoint" />
          </mxGeometry>
        </mxCell>
        <mxCell id="pqi50a7H88OGTmo-xfOe-34" value="set" style="rhombus;whiteSpace=wrap;html=1;rotation=25;" vertex="1" parent="1">
          <mxGeometry x="-200" y="370" width="80" height="80" as="geometry" />
        </mxCell>
        <mxCell id="pqi50a7H88OGTmo-xfOe-35" value="" style="endArrow=none;html=1;rounded=0;entryX=0.5;entryY=1;entryDx=0;entryDy=0;exitX=1;exitY=0;exitDx=0;exitDy=0;" edge="1" parent="1" source="pdpvf5aHKB5Wgdi-WaZ--24" target="pqi50a7H88OGTmo-xfOe-34">
          <mxGeometry width="50" height="50" relative="1" as="geometry">
            <mxPoint x="-430" y="450" as="sourcePoint" />
            <mxPoint x="-380" y="400" as="targetPoint" />
          </mxGeometry>
        </mxCell>
        <mxCell id="pqi50a7H88OGTmo-xfOe-36" value="1" style="text;html=1;align=center;verticalAlign=middle;whiteSpace=wrap;rounded=0;" vertex="1" parent="1">
          <mxGeometry x="-150" y="300" width="30" height="25" as="geometry" />
        </mxCell>
        <mxCell id="pqi50a7H88OGTmo-xfOe-37" value="m" style="text;html=1;align=center;verticalAlign=middle;whiteSpace=wrap;rounded=0;" vertex="1" parent="1">
          <mxGeometry x="-290" y="530" width="30" height="20" as="geometry" />
        </mxCell>
        <mxCell id="pqi50a7H88OGTmo-xfOe-38" value="" style="endArrow=none;html=1;rounded=0;entryX=0.394;entryY=0.924;entryDx=0;entryDy=0;entryPerimeter=0;exitX=0.75;exitY=0;exitDx=0;exitDy=0;" edge="1" parent="1" source="pdpvf5aHKB5Wgdi-WaZ--24" target="pqi50a7H88OGTmo-xfOe-34">
          <mxGeometry width="50" height="50" relative="1" as="geometry">
            <mxPoint x="-430" y="520" as="sourcePoint" />
            <mxPoint x="-380" y="470" as="targetPoint" />
          </mxGeometry>
        </mxCell>
        <mxCell id="pqi50a7H88OGTmo-xfOe-39" value="working hours" style="ellipse;whiteSpace=wrap;html=1;" vertex="1" parent="1">
          <mxGeometry x="-450" y="340" width="80" height="30" as="geometry" />
        </mxCell>
        <mxCell id="pqi50a7H88OGTmo-xfOe-40" value="" style="endArrow=none;html=1;rounded=0;entryX=0;entryY=1;entryDx=0;entryDy=0;exitX=1;exitY=0;exitDx=0;exitDy=0;" edge="1" parent="1" source="pdpvf5aHKB5Wgdi-WaZ--47" target="pqi50a7H88OGTmo-xfOe-39">
          <mxGeometry width="50" height="50" relative="1" as="geometry">
            <mxPoint x="-430" y="520" as="sourcePoint" />
            <mxPoint x="-380" y="470" as="targetPoint" />
          </mxGeometry>
        </mxCell>
        <mxCell id="pqi50a7H88OGTmo-xfOe-44" value="supervise" style="rhombus;whiteSpace=wrap;html=1;rotation=-25;" vertex="1" parent="1">
          <mxGeometry x="-900" y="320" width="80" height="80" as="geometry" />
        </mxCell>
        <mxCell id="pqi50a7H88OGTmo-xfOe-45" value="" style="endArrow=none;html=1;rounded=0;exitX=0.5;exitY=0;exitDx=0;exitDy=0;entryX=-0.007;entryY=0.429;entryDx=0;entryDy=0;entryPerimeter=0;" edge="1" parent="1" source="pqi50a7H88OGTmo-xfOe-47" target="pdpvf5aHKB5Wgdi-WaZ--1">
          <mxGeometry width="50" height="50" relative="1" as="geometry">
            <mxPoint x="-430" y="420" as="sourcePoint" />
            <mxPoint x="-720" y="240" as="targetPoint" />
          </mxGeometry>
        </mxCell>
        <mxCell id="pqi50a7H88OGTmo-xfOe-46" value="" style="endArrow=none;html=1;rounded=0;exitX=0.5;exitY=1;exitDx=0;exitDy=0;entryX=0.133;entryY=1.025;entryDx=0;entryDy=0;entryPerimeter=0;" edge="1" parent="1" source="pqi50a7H88OGTmo-xfOe-44" target="pdpvf5aHKB5Wgdi-WaZ--1">
          <mxGeometry width="50" height="50" relative="1" as="geometry">
            <mxPoint x="-430" y="420" as="sourcePoint" />
            <mxPoint x="-380" y="370" as="targetPoint" />
          </mxGeometry>
        </mxCell>
        <mxCell id="pqi50a7H88OGTmo-xfOe-48" value="" style="endArrow=none;html=1;rounded=0;exitX=0.5;exitY=0;exitDx=0;exitDy=0;entryX=-0.007;entryY=0.429;entryDx=0;entryDy=0;entryPerimeter=0;" edge="1" parent="1" source="pqi50a7H88OGTmo-xfOe-44" target="pqi50a7H88OGTmo-xfOe-47">
          <mxGeometry width="50" height="50" relative="1" as="geometry">
            <mxPoint x="-877" y="324" as="sourcePoint" />
            <mxPoint x="-711" y="237" as="targetPoint" />
          </mxGeometry>
        </mxCell>
        <mxCell id="pqi50a7H88OGTmo-xfOe-47" value="1" style="text;html=1;align=center;verticalAlign=middle;whiteSpace=wrap;rounded=0;" vertex="1" parent="1">
          <mxGeometry x="-740" y="240" width="30" height="20" as="geometry" />
        </mxCell>
        <mxCell id="pqi50a7H88OGTmo-xfOe-49" value="m" style="text;html=1;align=center;verticalAlign=middle;whiteSpace=wrap;rounded=0;" vertex="1" parent="1">
          <mxGeometry x="-710" y="305" width="20" height="10" as="geometry" />
        </mxCell>
        <mxCell id="pqi50a7H88OGTmo-xfOe-51" value="" style="endArrow=none;html=1;rounded=0;exitX=1;exitY=1;exitDx=0;exitDy=0;entryX=0;entryY=1;entryDx=0;entryDy=0;" edge="1" parent="1" source="pqi50a7H88OGTmo-xfOe-44" target="pdpvf5aHKB5Wgdi-WaZ--1">
          <mxGeometry width="50" height="50" relative="1" as="geometry">
            <mxPoint x="-430" y="400" as="sourcePoint" />
            <mxPoint x="-700" y="320" as="targetPoint" />
          </mxGeometry>
        </mxCell>
      </root>
    </mxGraphModel>
  </diagram>
</mxfile>
